<mxfile host="app.diagrams.net" modified="2024-04-30T17:10:59.168Z" agent="Mozilla/5.0 (Windows NT 10.0; WOW64) AppleWebKit/537.36 (KHTML, like Gecko) Chrome/102.0.0.0 Safari/537.36" etag="ZRXUh3AgY0YE9OULplBJ" version="24.2.8" type="github">
  <diagram name="第 1 页" id="yMSsEVOXaPMggsrbZAjm">
    <mxGraphModel dx="1434" dy="756" grid="0" gridSize="10" guides="1" tooltips="1" connect="1" arrows="1" fold="1" page="1" pageScale="1" pageWidth="827" pageHeight="1169" math="0" shadow="0">
      <root>
        <mxCell id="0" />
        <mxCell id="1" parent="0" />
        <mxCell id="86ciGtS47mqqBC3HCXlM-7" value="" style="edgeStyle=orthogonalEdgeStyle;rounded=0;orthogonalLoop=1;jettySize=auto;html=1;" edge="1" parent="1" source="86ciGtS47mqqBC3HCXlM-2" target="86ciGtS47mqqBC3HCXlM-6">
          <mxGeometry relative="1" as="geometry" />
        </mxCell>
        <mxCell id="86ciGtS47mqqBC3HCXlM-2" value="收集船舶信息、&lt;div&gt;到港时间等&lt;/div&gt;" style="shape=parallelogram;perimeter=parallelogramPerimeter;whiteSpace=wrap;html=1;fixedSize=1;" vertex="1" parent="1">
          <mxGeometry x="210" y="285" width="120" height="60" as="geometry" />
        </mxCell>
        <mxCell id="86ciGtS47mqqBC3HCXlM-4" value="" style="edgeStyle=orthogonalEdgeStyle;rounded=0;orthogonalLoop=1;jettySize=auto;html=1;" edge="1" parent="1" source="86ciGtS47mqqBC3HCXlM-3" target="86ciGtS47mqqBC3HCXlM-2">
          <mxGeometry relative="1" as="geometry" />
        </mxCell>
        <mxCell id="86ciGtS47mqqBC3HCXlM-3" value="码头船舶信息收集处" style="ellipse;whiteSpace=wrap;html=1;" vertex="1" parent="1">
          <mxGeometry x="30" y="280" width="110" height="70" as="geometry" />
        </mxCell>
        <mxCell id="86ciGtS47mqqBC3HCXlM-10" value="" style="edgeStyle=orthogonalEdgeStyle;rounded=0;orthogonalLoop=1;jettySize=auto;html=1;" edge="1" parent="1" source="86ciGtS47mqqBC3HCXlM-6" target="86ciGtS47mqqBC3HCXlM-9">
          <mxGeometry relative="1" as="geometry" />
        </mxCell>
        <mxCell id="86ciGtS47mqqBC3HCXlM-6" value="码头计划管理员" style="ellipse;whiteSpace=wrap;html=1;" vertex="1" parent="1">
          <mxGeometry x="400" y="280" width="110" height="70" as="geometry" />
        </mxCell>
        <mxCell id="86ciGtS47mqqBC3HCXlM-14" value="" style="edgeStyle=orthogonalEdgeStyle;rounded=0;orthogonalLoop=1;jettySize=auto;html=1;" edge="1" parent="1" source="86ciGtS47mqqBC3HCXlM-9" target="86ciGtS47mqqBC3HCXlM-13">
          <mxGeometry relative="1" as="geometry" />
        </mxCell>
        <mxCell id="86ciGtS47mqqBC3HCXlM-9" value="生成停泊计划" style="rounded=0;whiteSpace=wrap;html=1;" vertex="1" parent="1">
          <mxGeometry x="395" y="410" width="120" height="60" as="geometry" />
        </mxCell>
        <mxCell id="86ciGtS47mqqBC3HCXlM-16" value="" style="edgeStyle=orthogonalEdgeStyle;rounded=0;orthogonalLoop=1;jettySize=auto;html=1;" edge="1" parent="1" source="86ciGtS47mqqBC3HCXlM-13" target="86ciGtS47mqqBC3HCXlM-15">
          <mxGeometry relative="1" as="geometry" />
        </mxCell>
        <mxCell id="86ciGtS47mqqBC3HCXlM-13" value="码头泊位管理员" style="ellipse;whiteSpace=wrap;html=1;" vertex="1" parent="1">
          <mxGeometry x="395" y="520" width="120" height="80" as="geometry" />
        </mxCell>
        <mxCell id="86ciGtS47mqqBC3HCXlM-18" value="" style="edgeStyle=orthogonalEdgeStyle;rounded=0;orthogonalLoop=1;jettySize=auto;html=1;" edge="1" parent="1" source="86ciGtS47mqqBC3HCXlM-15" target="86ciGtS47mqqBC3HCXlM-17">
          <mxGeometry relative="1" as="geometry" />
        </mxCell>
        <mxCell id="86ciGtS47mqqBC3HCXlM-15" value="按照停泊计划执行" style="rounded=0;whiteSpace=wrap;html=1;" vertex="1" parent="1">
          <mxGeometry x="395" y="640" width="120" height="60" as="geometry" />
        </mxCell>
        <mxCell id="86ciGtS47mqqBC3HCXlM-17" value="完成计划" style="shape=parallelogram;perimeter=parallelogramPerimeter;whiteSpace=wrap;html=1;fixedSize=1;" vertex="1" parent="1">
          <mxGeometry x="580" y="640" width="120" height="60" as="geometry" />
        </mxCell>
      </root>
    </mxGraphModel>
  </diagram>
</mxfile>
